
<svg xmlns="http://www.w3.org/2000/svg" xmlns:xlink="http://www.w3.org/1999/xlink" id="Layer_1" viewBox="0 0 56 42">
<style type="text/css">
  .st0{fill:#F26C36;}
</style>
<path d="M50.3 37.5h.7c.2 0 .4.1.4.3 0 .1-.1.3-.2.3.2 0 .2.1.2.3v.3h-.1v-.2c0-.2-.1-.3-.3-.3h-.5v.5h-.1l-.1-1.2zm.2.6h.5c.1 0 .3-.1.3-.2 0-.2-.1-.2-.3-.2h-.5v.4z" class="st0"/>
  <path d="M50.8 39.2c-.6 0-1.2-.5-1.2-1.2s.5-1.2 1.2-1.2 1.2.5 1.2 1.2-.5 1.2-1.2 1.2zm0-2.2c-.6 0-1 .5-1 1s.5 1 1 1c.6 0 1-.5 1-1s-.4-1-1-1z" class="st0"/>
  <g>
    <path d="M29.4 15.1L43 38.3c.3.5.9.9 1.4.9h2.1c1.3 0 2.1-1.5 1.4-2.7L29.4 3.7c-.7-1.2-2.2-1.2-2.9 0L8 36.5c-.7 1.2.1 2.7 1.4 2.7h2.1c.6 0 1.1-.3 1.4-.9l13.6-23.2c.7-1.2 2.3-1.2 2.9 0z" class="st0"/>
    <path d="M29.4 34.4l2.1 3.9c.3.5.9.9 1.4.9H35c1.3 0 2.1-1.5 1.4-2.7l-7-12.5c-.7-1.2-2.2-1.2-2.9 0l-7.1 12.6c-.7 1.2.1 2.7 1.4 2.7H23c.6 0 1.1-.3 1.4-.9l2.1-3.9c.7-1.3 2.3-1.3 2.9-.1z" class="st0"/>
  </g>
</svg>



<svg xmlns="http://www.w3.org/2000/svg" xmlns:xlink="http://www.w3.org/1999/xlink" id="Layer_1" viewBox="0 0 56 42">
  <path d="M50.3 37.5h.7c.2 0 .4.1.4.3 0 .1-.1.3-.2.3.2 0 .2.1.2.3v.3h-.1v-.2c0-.2-.1-.3-.3-.3h-.5v.5h-.1l-.1-1.2zm.2.6h.5c.1 0 .3-.1.3-.2 0-.2-.1-.2-.3-.2h-.5v.4z" class="st0"/>
  <path d="M50.8 39.2c-.6 0-1.2-.5-1.2-1.2s.5-1.2 1.2-1.2 1.2.5 1.2 1.2-.5 1.2-1.2 1.2zm0-2.2c-.6 0-1 .5-1 1s.5 1 1 1c.6 0 1-.5 1-1s-.4-1-1-1z" class="st0"/>
  <g>
    <path d="M29.4 15.1L43 38.3c.3.5.9.9 1.4.9h2.1c1.3 0 2.1-1.5 1.4-2.7L29.4 3.7c-.7-1.2-2.2-1.2-2.9 0L8 36.5c-.7 1.2.1 2.7 1.4 2.7h2.1c.6 0 1.1-.3 1.4-.9l13.6-23.2c.7-1.2 2.3-1.2 2.9 0z" class="st0"/>
    <path d="M29.4 34.4l2.1 3.9c.3.5.9.9 1.4.9H35c1.3 0 2.1-1.5 1.4-2.7l-7-12.5c-.7-1.2-2.2-1.2-2.9 0l-7.1 12.6c-.7 1.2.1 2.7 1.4 2.7H23c.6 0 1.1-.3 1.4-.9l2.1-3.9c.7-1.3 2.3-1.3 2.9-.1z" class="st0"/>
  </g>
</svg>
